<svg width="48" height="48" viewBox="0 0 48 48" fill="none" xmlns="http://www.w3.org/2000/svg">
<g clip-path="url(#clip0_2542_72089)">
<path fill-rule="evenodd" clip-rule="evenodd" d="M24 48C10.8 48 0 37.2 0 23.88C0.12 10.68 10.8 -0.119986 24.12 1.38663e-05C37.32 0.120014 48 10.8 48 24.24C47.88 37.32 37.2 48 24 48Z" fill="#CBD2DA"/>
<path fill-rule="evenodd" clip-rule="evenodd" d="M20 18.8182C20 16.767 21.7324 15 24 15C26.2676 15 28 16.767 28 18.8182C28 20.2293 27.1932 21.493 25.9392 22.1586C25.0789 22.6153 24.1413 23.2537 23.3953 24.0972C22.6413 24.9498 22 26.1138 22 27.5456V29C22 30.1046 22.8954 31 24 31C25.1046 31 26 30.1046 26 29V27.5456C26 27.3707 26.0705 27.1103 26.3916 26.7471C26.7207 26.375 27.2216 26.0065 27.8146 25.6917C30.2827 24.3816 32 21.812 32 18.8182C32 14.4428 28.3598 11 24 11C19.6402 11 16 14.4428 16 18.8182C16 19.9228 16.8954 20.8182 18 20.8182C19.1046 20.8182 20 19.9228 20 18.8182ZM24 38C25.3807 38 26.5 36.8807 26.5 35.5C26.5 34.1193 25.3807 33 24 33C22.6193 33 21.5 34.1193 21.5 35.5C21.5 36.8807 22.6193 38 24 38Z" fill="white"/>
</g>
<defs>
<clipPath id="clip0_2542_72089">
<rect width="48" height="48" fill="white"/>
</clipPath>
</defs>
</svg>
